<?xml version="1.0" encoding="iso-8859-1"?>
<!-- Uploaded to: SVG Repo, www.svgrepo.com, Generator: SVG Repo Mixer Tools -->
<svg height="800px" width="800px" version="1.1" id="Layer_1" xmlns="http://www.w3.org/2000/svg" xmlns:xlink="http://www.w3.org/1999/xlink" 
	 viewBox="0 0 512 512" xml:space="preserve">
<path style="fill:#1C74BB;" d="M216.565,256c18.823-17.756,30.588-42.916,30.588-70.773c0-53.658-43.655-97.313-97.313-97.313
	H34.834c-14.658,0-26.54,11.882-26.54,26.54v283.093c0,14.658,11.882,26.54,26.54,26.54H149.84
	c53.658,0,97.313-43.655,97.313-97.313C247.153,298.916,235.388,273.756,216.565,256z M149.84,371.006H61.374V282.54h88.467
	c24.39,0,44.233,19.843,44.233,44.233C194.073,351.163,174.23,371.006,149.84,371.006z M149.84,229.46H61.374v-88.467h88.467
	c24.39,0,44.233,19.843,44.233,44.233S174.23,229.46,149.84,229.46z"/>
<path style="fill:#035FA1;" d="M34.834,397.546V114.454c0-14.658,11.882-26.54,26.54-26.54h-26.54
	c-14.658,0-26.54,11.882-26.54,26.54v283.093c0,14.658,11.882,26.54,26.54,26.54h26.54
	C46.716,424.086,34.834,412.204,34.834,397.546z"/>
<path style="fill:#E5E5E5;" d="M450.626,87.914h-132.7c-14.658,0-26.54,11.882-26.54,26.54s11.882,26.54,26.54,26.54h132.7
	c14.658,0,26.54-11.882,26.54-26.54S465.284,87.914,450.626,87.914z"/>
<path style="fill:#CCCCCC;" d="M459.473,123.3h-132.7c-14.658,0-26.54-11.882-26.54-26.54c0-0.73,0.038-1.451,0.095-2.166
	c-5.483,4.862-8.942,11.955-8.942,19.86c0,14.658,11.882,26.54,26.54,26.54h132.7c13.928,0,25.341-10.73,26.445-24.374
	C472.387,120.773,466.226,123.3,459.473,123.3z"/>
<path style="fill:#1C74BB;" d="M503.706,291.387c0-63.415-51.591-115.006-115.006-115.006s-115.006,51.591-115.006,115.006v17.693
	c0,63.415,51.591,115.007,115.006,115.007c36.516,0,70.048-16.762,92-45.987c8.804-11.72,6.438-28.357-5.28-37.16
	c-11.721-8.804-28.357-6.438-37.16,5.28c-11.831,15.754-29.895,24.787-49.559,24.787c-31.144,0-56.99-23.109-61.297-53.08h149.764
	C491.824,317.927,503.706,306.044,503.706,291.387z M332.752,264.847c9.957-20.906,31.292-35.387,55.947-35.387
	s45.99,14.481,55.947,35.387H332.752z"/>
<g>
	<path style="fill:#035FA1;" d="M496.943,309.08H353.942c0.435,3.026,1.099,5.977,1.956,8.847h121.268
		C485.025,317.927,492.084,314.508,496.943,309.08z"/>
	<path style="fill:#035FA1;" d="M415.24,415.24c-63.415,0-115.006-51.591-115.006-115.006V282.54
		c0-45.787,26.899-85.407,65.722-103.896c-52.558,10.585-92.262,57.113-92.262,112.743v17.693
		c0,63.415,51.591,115.007,115.006,115.007c17.537,0,34.383-3.876,49.591-11.134C430.802,414.46,423.09,415.24,415.24,415.24z"/>
</g>
<path d="M53.08,371.006c0,4.58,3.712,8.294,8.294,8.294h88.467c28.963,0,52.527-23.564,52.527-52.527
	c0-28.963-23.564-52.527-52.527-52.527H61.374c-4.581,0-8.294,3.713-8.294,8.294V371.006z M69.667,290.834h80.173
	c19.818,0,35.94,16.123,35.94,35.94c0,19.816-16.122,35.94-35.94,35.94H69.667V290.834z"/>
<path d="M61.374,237.754h88.467c28.963,0,52.527-23.564,52.527-52.527S178.803,132.7,149.84,132.7H61.374
	c-4.581,0-8.294,3.713-8.294,8.294v88.467C53.08,234.04,56.792,237.754,61.374,237.754z M69.667,149.287h80.173
	c19.818,0,35.94,16.123,35.94,35.94s-16.122,35.94-35.94,35.94H69.667V149.287z"/>
<path d="M149.84,79.62H34.834C15.627,79.62,0,95.246,0,114.454v61.927c0,4.58,3.712,8.294,8.294,8.294s8.294-3.713,8.294-8.294
	v-61.927c0-10.061,8.185-18.246,18.246-18.246H149.84c49.086,0,89.019,39.934,89.019,89.019c0,24.725-9.938,47.717-27.985,64.74
	c-3.419,3.227-3.419,8.84,0,12.066c18.047,17.024,27.985,40.016,27.985,64.741c0,49.086-39.934,89.019-89.019,89.019H34.834
	c-10.061,0-18.246-8.185-18.246-18.246v-185.78c0-4.58-3.712-8.294-8.294-8.294S0,207.186,0,211.767v185.78
	c0,19.207,15.627,34.834,34.834,34.834H149.84c58.232,0,105.607-47.375,105.607-105.607c0-26.1-9.858-51.451-27.291-70.773
	c17.432-19.322,27.291-44.673,27.291-70.773C255.447,126.995,208.072,79.62,149.84,79.62z"/>
<path d="M317.927,149.287h61.927c4.581,0,8.294-3.713,8.294-8.294s-3.712-8.294-8.294-8.294h-61.927
	c-10.061,0-18.246-8.185-18.246-18.246s8.185-18.246,18.246-18.246h132.7c10.061,0,18.246,8.185,18.246,18.246
	s-8.185,18.246-18.246,18.246H415.24c-4.581,0-8.294,3.713-8.294,8.294s3.712,8.294,8.294,8.294h35.387
	c19.207,0,34.834-15.626,34.834-34.834S469.834,79.62,450.626,79.62h-132.7c-19.207,0-34.834,15.627-34.834,34.834
	S298.719,149.287,317.927,149.287z"/>
<path d="M332.752,273.14h111.895c5.979,0,10.066-6.447,7.488-11.86c-11.606-24.368-36.506-40.114-63.435-40.114
	s-51.829,15.746-63.435,40.114C322.687,266.693,326.773,273.14,332.752,273.14z M388.7,237.754c15.781,0,30.655,7.087,40.729,18.799
	h-81.458C358.045,244.841,372.918,237.754,388.7,237.754z"/>
<path d="M512,291.387c0-67.988-55.313-123.3-123.3-123.3s-123.3,55.313-123.3,123.3v17.693c0,67.988,55.313,123.3,123.3,123.3
	c39.148,0,75.097-17.97,98.631-49.3c11.535-15.357,8.425-37.236-6.932-48.772c-15.357-11.536-37.236-8.425-48.772,6.931
	c-10.249,13.646-25.896,21.473-42.927,21.473c-23.197,0-43.575-15.141-50.821-36.492h139.287
	C496.373,326.22,512,310.594,512,291.387z M319.194,319.106c4.93,34.316,34.812,60.194,69.506,60.194
	c22.297,0,42.779-10.242,56.191-28.099c6.043-8.044,17.506-9.673,25.548-3.63c8.044,6.042,9.674,17.503,3.63,25.548
	c-20.372,27.121-51.487,42.674-85.369,42.674c-58.841,0-106.713-47.871-106.713-106.713v-17.693
	c0-58.841,47.871-106.713,106.713-106.713s106.713,47.871,106.713,106.713c0,10.061-8.185,18.246-18.246,18.246H327.402
	C322.432,309.633,318.485,314.182,319.194,319.106z"/>
</svg>