<?xml version="1.0" encoding="UTF-8"?>
<svg id="katman_1" xmlns="http://www.w3.org/2000/svg" version="1.1" viewBox="0 0 841.9 595.3">
  <!-- Generator: Adobe Illustrator 29.0.1, SVG Export Plug-In . SVG Version: 2.1.0 Build 192)  -->
  <defs>
    <style>
      .st0 {
        fill: #639;
      }

      .st1 {
        fill: #fff;
      }
    </style>
  </defs>
  <path class="st0" d="M194,70.7h377.2c42.3,0,76.6,34.3,76.6,76.6v300.7c0,42.3-34.3,76.6-76.6,76.6h-300.7c-42.3,0-76.6-34.3-76.6-76.6V70.7h0Z"/>
  <g>
    <path class="st1" d="M405.7,435.7c-.5,17.1-2.6,26.7-8.2,35.2-8.2,12.9-21.6,19-40.8,19s-32.6-5.9-40.8-17.6c-6.1-8.9-8.7-21.8-8.7-43.4v-50.2c0-23.9,3-37,10.8-46.2,8.2-9.8,20.6-14.8,37.7-14.8s34.2,7.3,42,21.6c4,7.3,5.6,15.7,6.1,29.8h-31.7c-1.6-18.5-4.9-23.4-15.2-23.4s-15,7.3-15,35.6v45c0,28.4,3.3,35.6,15.7,35.6s15.9-7.5,16.4-26.3h31.7Z"/>
    <path class="st1" d="M444.1,435.7c.5,19,4.9,26.3,16.4,26.3s16.9-6.1,16.9-22-1.4-11.3-4.2-14.3c-3.5-3.5-3.8-3.5-20.6-9.1-26.7-8.4-37.3-22.3-37.3-48.5s15.2-50.2,44.8-50.2,32.8,7,40.6,21.6c3.8,7.3,5.2,15.7,5.6,29.8h-31.7c-1.4-18.5-4.2-23.4-13.4-23.4s-12.9,6.8-12.9,20.9,4.9,17.1,21.3,22.5c16.6,5.6,21.3,7.7,27.4,12.7,9.1,7.3,13.4,19,13.4,36.8,0,34.5-16.4,51.3-49.5,51.3s-35.2-7.5-42.9-23c-3.8-7.3-5.2-15.9-5.6-31.2h31.7Z"/>
    <path class="st1" d="M549.4,435.7c.5,19,4.9,26.3,16.4,26.3s16.9-6.1,16.9-22-1.4-11.3-4.2-14.3c-3.5-3.5-3.8-3.5-20.6-9.1-26.7-8.4-37.3-22.3-37.3-48.5s15.2-50.2,44.8-50.2,32.8,7,40.6,21.6c3.8,7.3,5.2,15.7,5.6,29.8h-31.7c-1.4-18.5-4.2-23.4-13.4-23.4s-12.9,6.8-12.9,20.9,4.9,17.1,21.3,22.5c16.6,5.6,21.3,7.7,27.4,12.7,9.1,7.3,13.4,19,13.4,36.8,0,34.5-16.4,51.3-49.5,51.3s-35.2-7.5-42.9-23c-3.8-7.3-5.2-15.9-5.6-31.2h31.7Z"/>
  </g>
</svg>